<svg id="_626c7fc8e6b01c6bcb665966_logoipsum_1" data-name="626c7fc8e6b01c6bcb665966_logoipsum_1" xmlns="http://www.w3.org/2000/svg" width="249.9" height="56.274" viewBox="0 0 249.9 56.274">
  <path id="Path_18" data-name="Path 18" d="M31.32,7.25H37.1V35.1H31.32Z" transform="translate(28.943 5.951)" fill="#737680"/>
  <path id="Path_19" data-name="Path 19" d="M36,21.618A10.118,10.118,0,1,1,46.06,31.736,9.983,9.983,0,0,1,36,21.618Zm14.493,0a4.394,4.394,0,1,0-4.394,4.51,4.278,4.278,0,0,0,4.355-4.51Z" transform="translate(33.282 9.892)" fill="#737680"/>
  <path id="Path_20" data-name="Path 20" d="M68.305,12.008V30.143c0,6.4-5.011,9.116-10.079,9.116a9.636,9.636,0,0,1-9.039-4.625l4.876-2.814a4.375,4.375,0,0,0,4.355,2.409,3.854,3.854,0,0,0,4.317-4.086V28.389a6.8,6.8,0,0,1-5.57,2.467,9.636,9.636,0,0,1,0-19.272,6.8,6.8,0,0,1,5.57,2.467V12.123Zm-5.57,9.154a4.625,4.625,0,1,0-4.625,4.433,4.317,4.317,0,0,0,4.625-4.433Z" transform="translate(43.973 9.962)" fill="#737680"/>
  <path id="Path_21" data-name="Path 21" d="M60,21.618A10.118,10.118,0,1,1,70.1,31.736,10,10,0,0,1,60,21.618Zm14.493,0a4.394,4.394,0,1,0-4.375,4.51,4.278,4.278,0,0,0,4.355-4.51Z" transform="translate(55.535 9.892)" fill="#737680"/>
  <path id="Path_22" data-name="Path 22" d="M71.87,10.8a3.43,3.43,0,1,1,3.43,3.43,3.469,3.469,0,0,1-3.43-3.43Zm.559,5.107h5.782V34.987H72.429Z" transform="translate(66.541 6.063)" fill="#737680"/>
  <path id="Path_23" data-name="Path 23" d="M97.986,21.6a9.636,9.636,0,0,1-9.193,10.118,7.17,7.17,0,0,1-5.782-2.332v9.424H77.23V12.059h5.782v1.792a7.149,7.149,0,0,1,5.782-2.313A9.636,9.636,0,0,1,97.986,21.6Zm-5.782,0a4.548,4.548,0,1,0-4.529,4.664A4.355,4.355,0,0,0,92.2,21.6Z" transform="translate(71.511 9.911)" fill="#737680"/>
  <path id="Path_24" data-name="Path 24" d="M104.9,25.41c0,4.394-3.854,6.263-7.94,6.263a8.364,8.364,0,0,1-8.21-4.548l4.972-2.814a3.122,3.122,0,0,0,3.218,2.255c1.368,0,2.062-.424,2.062-1.195,0-2.1-9.385-.983-9.385-7.593,0-4.163,3.508-6.244,7.478-6.244a8.364,8.364,0,0,1,7.555,4.066l-4.972,2.621a2.814,2.814,0,0,0-2.563-1.677c-1,0-1.6.385-1.6,1.06C95.514,19.8,104.9,18.356,104.9,25.41Z" transform="translate(82.193 9.916)" fill="#737680"/>
  <path id="Path_25" data-name="Path 25" d="M116.836,11.8V30.879h-5.782V29.087a6.569,6.569,0,0,1-5.435,2.37c-3.854,0-7.15-2.756-7.15-7.9V11.8h5.782V22.689a3.137,3.137,0,0,0,.158,1.347,3.162,3.162,0,0,0,3.176,2.122c2.081,0,3.546-1.233,3.546-3.854V11.8Z" transform="translate(91.205 10.17)" fill="#737680"/>
  <path id="Path_26" data-name="Path 26" d="M138.852,19.422V31.139h-5.782V19.923c0-1.927-.906-3.122-2.737-3.122s-2.987,1.33-2.987,3.585V31.139h-5.782V19.923c0-1.927-.906-3.122-2.737-3.122s-2.987,1.33-2.987,3.585V31.139H110.06V12.06h5.782v1.754a5.9,5.9,0,0,1,5.126-2.274,5.647,5.647,0,0,1,4.991,2.505,6.286,6.286,0,0,1,5.531-2.505C136,11.539,138.852,14.661,138.852,19.422Z" transform="translate(101.951 9.91)" fill="#737680"/>
  <path id="Path_27" data-name="Path 27" d="M25.875,8.591V.4H.05V56.674H25.875V48.484a19.946,19.946,0,1,1,0-39.893Z" transform="translate(-0.05 -0.4)" fill="#737680"/>
  <path id="Path_28" data-name="Path 28" d="M13.45,4.65V44.543a19.946,19.946,0,0,0,0-39.893Z" transform="translate(12.374 3.541)" fill="#737680"/>
  <path id="Path_29" data-name="Path 29" d="M129.56,15.82a4.24,4.24,0,1,0-4.24-4.24A4.24,4.24,0,0,0,129.56,15.82Z" transform="translate(116.1 6.035)" fill="#737680"/>
</svg>
