<svg xmlns="http://www.w3.org/2000/svg" width="57.121" height="57.121" viewBox="0 0 57.121 57.121">
  <path id="Path_62" data-name="Path 62" d="M45.812,11.882h0a3.427,3.427,0,1,0,3.427,3.427A3.427,3.427,0,0,0,45.812,11.882ZM58.95,18.794a21.677,21.677,0,0,0-1.314-6.94A14.109,14.109,0,0,0,54.323,6.8a13.423,13.423,0,0,0-5.055-3.284,20.849,20.849,0,0,0-6.94-1.342C39.3,2,38.329,2,30.561,2s-8.74,0-11.767.171a20.849,20.849,0,0,0-6.94,1.342A13.652,13.652,0,0,0,6.8,6.8a13.423,13.423,0,0,0-3.284,5.055,20.849,20.849,0,0,0-1.342,6.94C2,21.821,2,22.792,2,30.561s0,8.74.171,11.767a20.849,20.849,0,0,0,1.342,6.94A13.424,13.424,0,0,0,6.8,54.323a13.652,13.652,0,0,0,5.055,3.284,20.849,20.849,0,0,0,6.94,1.342c3.027.171,4,.171,11.767.171s8.74,0,11.767-.171a20.849,20.849,0,0,0,6.94-1.342,13.424,13.424,0,0,0,5.055-3.284,13.852,13.852,0,0,0,3.313-5.055,21.678,21.678,0,0,0,1.314-6.94c0-3.027.171-4,.171-11.767S59.121,21.821,58.95,18.794ZM53.809,41.985a16.022,16.022,0,0,1-.971,5.312A8.74,8.74,0,0,1,50.7,50.582a9.111,9.111,0,0,1-3.284,2.142,16.023,16.023,0,0,1-5.312.971c-2.856.143-3.913.171-11.424.171s-8.568,0-11.424-.171a16.365,16.365,0,0,1-5.541-.857A9.339,9.339,0,0,1,10.568,50.7a8.568,8.568,0,0,1-2.113-3.284,15.822,15.822,0,0,1-1.142-5.427c0-2.856-.171-3.913-.171-11.424s0-8.568.171-11.424a15.823,15.823,0,0,1,1-5.427,8.568,8.568,0,0,1,2.256-3.142A8.968,8.968,0,0,1,13.71,8.283a16.365,16.365,0,0,1,5.427-.971c2.856,0,3.913-.171,11.424-.171s8.568,0,11.424.171a16.023,16.023,0,0,1,5.312.971,8.74,8.74,0,0,1,3.4,2.285,8.74,8.74,0,0,1,2.142,3.142,16.022,16.022,0,0,1,.971,5.427c.143,2.856.171,3.913.171,11.424S53.952,39.129,53.809,41.985ZM30.561,15.909a14.623,14.623,0,1,0,10.387,4.273A14.652,14.652,0,0,0,30.561,15.909Zm0,24.162a9.511,9.511,0,1,1,9.511-9.511,9.511,9.511,0,0,1-9.511,9.511Z" transform="translate(-2 -2)"/>
</svg>
