<svg id="_626c7fc825655269c03f2a2f_logoipsum_2" data-name="626c7fc825655269c03f2a2f_logoipsum_2" xmlns="http://www.w3.org/2000/svg" width="244.212" height="56.93" viewBox="0 0 244.212 56.93">
  <path id="Path_14" data-name="Path 14" d="M36.51,10.085H42.7V35.139H36.51Zm8.653,15.63c0-6.206,3.854-9.925,9.636-9.925s9.636,3.719,9.636,9.925-3.72,9.964-9.636,9.964S45.163,32.055,45.163,25.715Zm13.144,0c0-3.411-1.33-5.415-3.45-5.415s-3.43,1.927-3.43,5.415,1.31,5.4,3.43,5.4,3.488-1.908,3.488-5.377ZM66.9,36.43h5.974a3.2,3.2,0,0,0,3.353,1.927c2.37,0,3.6-1.272,3.6-3.161V31.728h.019A5.916,5.916,0,0,1,74.071,35.1c-4.529,0-7.535-3.45-7.535-9.385s2.872-9.636,7.709-9.636a5.917,5.917,0,0,1,5.782,3.642h-.173V16.233h6.129V35c0,4.529-4.009,7.362-9.906,7.362-5.358-.019-8.788-2.467-9.135-5.917ZM79.853,25.715c0-3.026-1.388-4.934-3.585-4.934s-3.546,1.927-3.546,4.934,1.33,4.779,3.546,4.779S79.853,28.856,79.853,25.715Zm8.576,0c0-6.206,3.854-9.925,9.636-9.925s9.636,3.719,9.636,9.925-3.739,9.964-9.636,9.964-9.6-3.623-9.6-9.964Zm13.143,0c0-3.411-1.349-5.415-3.45-5.415s-3.43,1.927-3.43,5.415,1.31,5.4,3.43,5.4,3.488-1.908,3.488-5.377Zm8.634-14.049a3.161,3.161,0,1,1,3.161,3.026,3.045,3.045,0,0,1-3.122-3.006Zm0,4.548h6.263v19H110.3ZM139,25.715c0,6.186-2.775,9.771-7.5,9.771a5.917,5.917,0,0,1-5.782-3.527H125.6v9.366h-6.186V16.272h6.148v3.392h.116A5.955,5.955,0,0,1,131.463,16c4.857-.039,7.651,3.527,7.651,9.732Zm-6.3,0c0-3.006-1.407-4.953-3.585-4.953s-3.546,1.927-3.565,4.953,1.388,4.934,3.565,4.934,3.7-1.792,3.7-4.914ZM149.56,15.77c5.184,0,8.4,2.448,8.441,6.379h-5.647c0-1.368-1.137-2.216-2.833-2.216s-2.505.655-2.505,1.638.713,1.291,2.139,1.58l3.97.809c3.854.809,5.4,2.351,5.4,5.223,0,3.854-3.565,6.475-8.865,6.475s-8.749-2.544-9-6.418h5.994c.173,1.407,1.291,2.236,3.1,2.236s2.66-.578,2.66-1.6-.578-1.195-2.062-1.5l-3.585-.752c-3.719-.79-5.666-2.737-5.666-5.647.116-3.777,3.353-6.186,8.576-6.186ZM179.238,35.2h-5.994V31.631h-.116a5.435,5.435,0,0,1-5.531,3.951,6.611,6.611,0,0,1-6.8-7.15v-12.2h6.186V27.1c0,2.236,1.176,3.45,3.1,3.45a3.166,3.166,0,0,0,3.014-2.285,3.2,3.2,0,0,0,.089-1.338v-10.7h6.167Zm2.987-18.983h6.013v3.662h.135a5.511,5.511,0,0,1,5.415-4.009,4.935,4.935,0,0,1,5.281,4.028h.27a5.782,5.782,0,0,1,5.782-4.028,6.015,6.015,0,0,1,6.225,6.456V35.216h-6.225V23.9c0-1.927-.906-3.006-2.66-3.006a2.7,2.7,0,0,0-2.717,3.064V35.216h-5.9V23.845c0-1.927-.944-2.949-2.64-2.949a2.749,2.749,0,0,0-2.654,1.941,2.725,2.725,0,0,0-.1,1.162V35.216h-6.186Z" transform="translate(32.85 7.318)" fill="#737680"/>
  <path id="Path_15" data-name="Path 15" d="M57.642,19.271A19.041,19.041,0,0,0,24.571,6.4H.52V57.16H51.3V33.436a19.021,19.021,0,0,0,6.34-14.165Zm-9.771,0a9.289,9.289,0,1,1-2.728-6.556,9.288,9.288,0,0,1,2.728,6.556Zm-6.34,28.118H10.291V16.168h9.52a18.411,18.411,0,0,0-.289,3.1,19.08,19.08,0,0,0,19.06,19.06,18.637,18.637,0,0,0,2.949-.251Z" transform="translate(-0.52 -0.229)" fill="#737680"/>
</svg>
