<svg id="_626c7fc83f74e277b43302b6_logoipsum_3" data-name="626c7fc83f74e277b43302b6_logoipsum_3" xmlns="http://www.w3.org/2000/svg" width="228.906" height="52.268" viewBox="0 0 228.906 52.268">
  <path id="Path_16" data-name="Path 16" d="M34.87,8.83h5.782V32.207H34.87Zm8.075,14.55c0-5.782,3.546-9.231,9.019-9.231s9.019,3.45,9.019,9.231-3.469,9.251-9.019,9.251S42.945,29.258,42.945,23.38Zm12.238,0c0-3.18-1.253-5.049-3.218-5.049s-3.2,1.927-3.2,5.049,1.214,5.011,3.2,5.011,3.218-1.773,3.218-4.991Zm7.979,9.964h5.55a2.987,2.987,0,0,0,3.122,1.734c2.2,0,3.353-1.195,3.353-2.929V28.911h-.116a5.473,5.473,0,0,1-5.261,3.161c-4.221,0-7.015-3.218-7.015-8.749s2.66-9.019,7.092-9.019A5.531,5.531,0,0,1,75.206,17.7h0V14.477h5.782V32.014c0,4.221-3.719,6.842-9.212,6.842-5.107,0-8.287-2.293-8.615-5.493Zm12.045-9.983c0-2.814-1.291-4.587-3.334-4.587s-3.3,1.754-3.3,4.587,1.233,4.433,3.3,4.433,3.334-1.561,3.334-4.413Zm7.959,0c0-5.782,3.546-9.231,9.019-9.231s9.039,3.45,9.039,9.231-3.469,9.251-9.039,9.251-9.019-3.353-9.019-9.231Zm12.238,0c0-3.18-1.253-5.049-3.218-5.049s-3.1,1.946-3.1,5.088,1.214,5.011,3.18,5.011S95.4,26.618,95.4,23.4Zm8.017-13.086a2.949,2.949,0,1,1,3.006,2.872,2.814,2.814,0,0,1-3.006-2.833Zm0,4.24H109.2V32.207h-5.782Zm26.769,8.846c0,5.782-2.563,9.077-6.957,9.077a5.511,5.511,0,0,1-5.4-3.276h-.116v8.711h-5.782v-23.4h5.782v3.161h.116a5.531,5.531,0,0,1,5.358-3.411c4.433.077,7.073,3.392,7.073,9.173Zm-5.782,0c0-2.814-1.291-4.606-3.315-4.606s-3.315,1.812-3.334,4.606,1.311,4.587,3.334,4.587,3.315-1.754,3.315-4.548Zm15.707-9.251c4.8,0,7.709,2.274,7.844,5.916H142.7c0-1.253-1.041-2.043-2.64-2.043s-2.313.617-2.313,1.522.636,1.195,1.927,1.465l3.7.752c3.527.752,5.03,2.178,5.03,4.857,0,3.662-3.334,6.013-8.248,6.013s-8.133-2.351-8.383-5.955h5.57c.173,1.31,1.214,2.081,2.91,2.081s2.467-.559,2.467-1.484-.54-1.118-1.927-1.407l-3.334-.713c-3.45-.713-5.261-2.544-5.261-5.242.039-3.469,3.141-5.724,7.921-5.724Zm27.578,18.058h-5.57v-3.3h-.116a5.03,5.03,0,0,1-5.126,3.681,6.148,6.148,0,0,1-6.475-6.649V14.477h5.782v10.1c0,2.1,1.079,3.218,2.872,3.218a2.949,2.949,0,0,0,2.929-3.334V14.477h5.782Zm2.794-17.692h5.589v3.411h.116a5.126,5.126,0,0,1,5.03-3.739A4.605,4.605,0,0,1,186.136,18h.116a5.437,5.437,0,0,1,5.435-3.854,5.607,5.607,0,0,1,5.782,6.013V32.207h-5.782V21.7c0-1.927-.867-2.814-2.486-2.814a2.523,2.523,0,0,0-2.525,2.852V32.207h-5.493V21.627c0-1.773-.867-2.737-2.448-2.737a2.581,2.581,0,0,0-2.563,2.891V32.207h-5.782Z" transform="translate(31.424 5.896)" fill="#737680"/>
  <path id="Path_17" data-name="Path 17" d="M50.6,16.215a25.538,25.538,0,0,0-3.854-6.206,26.075,26.075,0,1,0-36,37.233,25.226,25.226,0,0,0,6.167,3.527A25.806,25.806,0,0,0,26.679,52.7,26.133,26.133,0,0,0,52.754,26.583,25.805,25.805,0,0,0,50.6,16.215ZM26.66,5.75a20.641,20.641,0,0,1,8.711,1.927h0a8.461,8.461,0,0,1-2.081.6,11.042,11.042,0,0,0-9.347,9.347,5.782,5.782,0,0,1-5.223,5.107,11.043,11.043,0,0,0-9.347,9.347A5.608,5.608,0,0,1,7.85,35.429h0A20.814,20.814,0,0,1,26.679,5.712ZM10.722,40.074c.231-.212.463-.4.694-.636a10.561,10.561,0,0,0,3.122-6.225,5.628,5.628,0,0,1,1.677-3.508A5.454,5.454,0,0,1,19.7,28.048,11.043,11.043,0,0,0,29.049,18.7a5.627,5.627,0,0,1,1.677-3.681,5.531,5.531,0,0,1,3.527-1.6,10.561,10.561,0,0,0,5.782-2.756,20.258,20.258,0,0,1,4.548,5.358,1.657,1.657,0,0,1-.251.27,5.531,5.531,0,0,1-3.488,1.7A11,11,0,0,0,31.5,27.335,5.782,5.782,0,0,1,26.313,32.5a11.1,11.1,0,0,0-9.4,9.347,6.052,6.052,0,0,1-.944,2.64,20.988,20.988,0,0,1-5.242-4.413ZM26.66,47.513a20.892,20.892,0,0,1-5.782-.809,11.14,11.14,0,0,0,1.233-3.854,5.782,5.782,0,0,1,5.165-5.165,11.043,11.043,0,0,0,9.366-9.347,5.782,5.782,0,0,1,5.165-5.165,11,11,0,0,0,4.934-1.927A20.852,20.852,0,0,1,26.66,47.416Z" transform="translate(-0.471 -0.429)" fill="#737680"/>
</svg>
