<svg id="_626c7fc825655256803f2a2e_logoipsum_4" data-name="626c7fc825655256803f2a2e_logoipsum_4" xmlns="http://www.w3.org/2000/svg" width="261.417" height="51.391" viewBox="0 0 261.417 51.391">
  <path id="Path_1" data-name="Path 1" d="M29.467,13.373a7.046,7.046,0,0,0-2.016,5.645l-.035-.035a8.371,8.371,0,0,1-9.046,9.046l.035.035a7.088,7.088,0,1,0,6.4,6.394l.037.035a8.372,8.372,0,0,1,9.046-9.046l-.037-.035a7.075,7.075,0,1,0-4.379-12.039Z" transform="translate(9.749 9.181)" fill="#737680"/>
  <path id="Path_2" data-name="Path 2" d="M24.217,32.5l-.037-.035A7,7,0,0,0,31.845,24.8l.037.035a8.372,8.372,0,0,1,9.046-9.046l-.037-.035A7.088,7.088,0,1,0,34.5,9.361l-.035-.037a8.37,8.37,0,0,1-9.046,9.046l.035.037a7,7,0,0,0-7.664,7.659l-.035-.035a8.374,8.374,0,0,1-9.046,9.046l.035.035a7.088,7.088,0,1,0,6.394,6.394l.037.035A8.372,8.372,0,0,1,24.217,32.5Z" transform="translate(0.782 0.205)" fill="#737680"/>
  <path id="Path_3" data-name="Path 3" d="M12.153,29.5a7.038,7.038,0,0,0,2.014-5.645l.037.035a8.372,8.372,0,0,1,9.05-9.046l-.037-.035a7.086,7.086,0,1,0-6.394-6.394l-.035-.035a8.372,8.372,0,0,1-9.046,9.046l.035.035A7.075,7.075,0,1,0,12.157,29.5Z" transform="translate(-0.07 -0.668)" fill="#737680"/>
  <path id="Path_4" data-name="Path 4" d="M37.317,5.655h5.724V33.509H37.317Z" transform="translate(34.465 3.956)" fill="#737680"/>
  <path id="Path_5" data-name="Path 5" d="M41.969,20.043A10.112,10.112,0,1,1,52.081,30.115,10,10,0,0,1,41.969,20.043Zm14.5,0a4.39,4.39,0,1,0-4.388,4.512,4.28,4.28,0,0,0,4.388-4.512Z" transform="translate(38.778 7.883)" fill="#737680"/>
  <path id="Path_6" data-name="Path 6" d="M74.179,10.471V28.587c0,6.41-5,9.119-10.073,9.119a9.755,9.755,0,0,1-9.042-4.625l4.884-2.823a4.359,4.359,0,0,0,4.35,2.4,3.8,3.8,0,0,0,4.311-4.082V26.835a6.776,6.776,0,0,1-5.572,2.48,9.7,9.7,0,0,1,0-19.382,6.776,6.776,0,0,1,5.572,2.48V10.468Zm-5.57,9.156a4.625,4.625,0,1,0-4.616,4.433,4.317,4.317,0,0,0,4.616-4.433Z" transform="translate(49.605 7.916)" fill="#737680"/>
  <path id="Path_7" data-name="Path 7" d="M65.982,20.043A10.112,10.112,0,1,1,76.094,30.115,10,10,0,0,1,65.982,20.043Zm14.5,0a4.39,4.39,0,1,0-4.388,4.512,4.281,4.281,0,0,0,4.388-4.512Z" transform="translate(61.043 7.883)" fill="#737680"/>
  <path id="Path_8" data-name="Path 8" d="M77.861,9.208A3.434,3.434,0,1,1,81.3,12.643a3.469,3.469,0,0,1-3.434-3.434Zm.578,5.113h5.726V33.4H78.431Z" transform="translate(72.058 4.066)" fill="#737680"/>
  <path id="Path_9" data-name="Path 9" d="M103.832,20.011a9.58,9.58,0,0,1-9.12,10.072,7.159,7.159,0,0,1-5.683-2.328V37.18H83.305V10.471h5.724v1.792a7.164,7.164,0,0,1,5.683-2.326,9.578,9.578,0,0,1,9.12,10.073Zm-5.724,0a4.541,4.541,0,1,0-4.539,4.654,4.356,4.356,0,0,0,4.539-4.654Z" transform="translate(77.105 7.916)" fill="#737680"/>
  <path id="Path_10" data-name="Path 10" d="M110.885,23.821c0,4.388-3.814,6.258-7.934,6.258a8.355,8.355,0,0,1-8.2-4.54l4.959-2.823a3.136,3.136,0,0,0,3.238,2.251c1.372,0,2.06-.42,2.06-1.181,0-2.1-9.387-.993-9.387-7.593,0-4.161,3.511-6.258,7.479-6.258a8.345,8.345,0,0,1,7.439,4.082l-4.884,2.633A2.769,2.769,0,0,0,103.1,14.97c-.993,0-1.6.385-1.6,1.068C101.5,18.213,110.885,16.762,110.885,23.821Z" transform="translate(87.714 7.919)" fill="#737680"/>
  <path id="Path_11" data-name="Path 11" d="M122.778,10.209V29.288h-5.724V27.494a6.52,6.52,0,0,1-5.454,2.328c-3.854,0-7.131-2.746-7.131-7.9V10.209h5.724V21.082a3.146,3.146,0,0,0,3.319,3.469c2.1,0,3.548-1.22,3.548-3.93V10.215Z" transform="translate(96.729 8.178)" fill="#737680"/>
  <path id="Path_12" data-name="Path 12" d="M144.768,17.84V29.553h-5.724V18.335c0-1.908-.915-3.128-2.746-3.128-1.908,0-2.978,1.336-2.978,3.587v10.76H127.6V18.335c0-1.908-.915-3.128-2.748-3.128-1.908,0-2.976,1.336-2.976,3.587v10.76h-5.724V10.474h5.724v1.754a5.855,5.855,0,0,1,5.113-2.288,5.673,5.673,0,0,1,5,2.517,6.285,6.285,0,0,1,5.533-2.517C141.9,9.942,144.768,13.07,144.768,17.84Z" transform="translate(107.56 7.911)" fill="#737680"/>
  <path id="Path_13" data-name="Path 13" d="M135.556,14.235a4.248,4.248,0,1,0-4.248-4.248A4.248,4.248,0,0,0,135.556,14.235Z" transform="translate(121.614 4.035)" fill="#737680"/>
</svg>
