<svg xmlns="http://www.w3.org/2000/svg" width="33.424" height="33.424" viewBox="0 0 33.424 33.424">
  <path id="Path_53" data-name="Path 53" d="M27.636,7.782h0a2.005,2.005,0,1,0,2.005,2.005A2.005,2.005,0,0,0,27.636,7.782Zm7.688,4.044a12.684,12.684,0,0,0-.769-4.061,8.256,8.256,0,0,0-1.939-2.958,7.855,7.855,0,0,0-2.958-1.922A12.2,12.2,0,0,0,25.6,2.1C23.826,2,23.258,2,18.712,2s-5.114,0-6.885.1a12.2,12.2,0,0,0-4.061.785A7.988,7.988,0,0,0,4.808,4.808,7.855,7.855,0,0,0,2.886,7.766,12.2,12.2,0,0,0,2.1,11.827C2,13.6,2,14.166,2,18.712s0,5.114.1,6.885a12.2,12.2,0,0,0,.785,4.061,7.855,7.855,0,0,0,1.922,2.958,7.988,7.988,0,0,0,2.958,1.922,12.2,12.2,0,0,0,4.061.785c1.771.1,2.34.1,6.885.1s5.114,0,6.885-.1a12.2,12.2,0,0,0,4.061-.785,7.855,7.855,0,0,0,2.958-1.922,8.105,8.105,0,0,0,1.939-2.958,12.685,12.685,0,0,0,.769-4.061c0-1.771.1-2.34.1-6.885S35.424,13.6,35.324,11.827ZM32.316,25.4a9.375,9.375,0,0,1-.568,3.108,5.114,5.114,0,0,1-1.253,1.922,5.331,5.331,0,0,1-1.922,1.253,9.376,9.376,0,0,1-3.108.568c-1.671.084-2.29.1-6.685.1s-5.014,0-6.685-.1a9.576,9.576,0,0,1-3.242-.5,5.465,5.465,0,0,1-1.838-1.253,5.014,5.014,0,0,1-1.237-1.922A9.258,9.258,0,0,1,5.108,25.4c0-1.671-.1-2.29-.1-6.685s0-5.014.1-6.685a9.259,9.259,0,0,1,.585-3.175,5.014,5.014,0,0,1,1.32-1.838A5.248,5.248,0,0,1,8.852,5.677a9.576,9.576,0,0,1,3.175-.568c1.671,0,2.29-.1,6.685-.1s5.014,0,6.685.1a9.376,9.376,0,0,1,3.108.568,5.114,5.114,0,0,1,1.989,1.337,5.114,5.114,0,0,1,1.253,1.838,9.375,9.375,0,0,1,.568,3.175c.084,1.671.1,2.29.1,6.685S32.4,23.726,32.316,25.4Zm-13.6-15.258a8.557,8.557,0,1,0,6.078,2.5A8.573,8.573,0,0,0,18.712,10.139Zm0,14.138a5.565,5.565,0,1,1,5.565-5.565,5.565,5.565,0,0,1-5.565,5.565Z" transform="translate(-2 -2)" fill="#fff"/>
</svg>
