<svg xmlns="http://www.w3.org/2000/svg" width="56.741" height="57.085" viewBox="0 0 56.741 57.085">
  <path id="Path_63" data-name="Path 63" d="M54.606,2H6.256a4.139,4.139,0,0,0-4.2,4.081V55a4.139,4.139,0,0,0,4.2,4.081h48.35A4.139,4.139,0,0,0,58.8,55V6.082A4.139,4.139,0,0,0,54.606,2ZM19.271,49.779H10.708V24.092h8.563ZM14.99,20.5h0a4.453,4.453,0,1,1,0-8.905,4.481,4.481,0,1,1,0,8.905ZM50.153,49.779H41.591V35.994c0-3.454-1.227-5.708-4.338-5.708a4.709,4.709,0,0,0-4.4,3.111,5.708,5.708,0,0,0-.285,2.084V49.751H24.009V24.063h8.563v3.625a8.563,8.563,0,0,1,7.735-4.281c5.708,0,9.847,3.682,9.847,11.588Z" transform="translate(-2.06 -2)"/>
</svg>
