<svg xmlns="http://www.w3.org/2000/svg" width="33.202" height="33.403" viewBox="0 0 33.202 33.403">
  <path id="Path_54" data-name="Path 54" d="M32.807,2H4.515A2.422,2.422,0,0,0,2.06,4.388V33.014A2.422,2.422,0,0,0,4.515,35.4H32.807a2.422,2.422,0,0,0,2.455-2.388V4.388A2.422,2.422,0,0,0,32.807,2ZM12.131,29.958H7.12V14.927h5.01ZM9.626,12.823h0a2.605,2.605,0,1,1,0-5.211,2.622,2.622,0,1,1,0,5.211ZM30.2,29.958h-5.01V21.891c0-2.021-.718-3.34-2.539-3.34a2.756,2.756,0,0,0-2.572,1.82,3.34,3.34,0,0,0-.167,1.219v8.351H14.9V14.91h5.01v2.121a5.01,5.01,0,0,1,4.526-2.505c3.34,0,5.762,2.154,5.762,6.781Z" transform="translate(-2.06 -2)" fill="#fff"/>
</svg>
